<?xml version="1.0" standalone="no"?><!DOCTYPE svg PUBLIC "-//W3C//DTD SVG 1.1//EN" "http://www.w3.org/Graphics/SVG/1.1/DTD/svg11.dtd"><svg t="1540047003797" class="icon" style="" viewBox="0 0 1024 1024" version="1.1" xmlns="http://www.w3.org/2000/svg" p-id="4194" xmlns:xlink="http://www.w3.org/1999/xlink" width="200" height="200"><defs><style type="text/css"></style></defs><path d="M779.578368 356.221c25.019392-6.636 46.7968-15.788 58.807296-29.591 0 0 11.147264-7.572-2.230272-24.865-2.75456-3.564-6.458368-5.29-10.601472-5.787-17.808384-17.734-33.350656-49.652-44.095488-75.983-1.398784-5.845-6.31808-27.298-6.31808-39.816 0-14.602-57.679872-55.126-112.852992-42.159-55.172096 12.971-129.573888 55.123-126.230528 119.984 3.349504 64.849 22.571008 73.766 36.781056 81.878 0 0-281.719808 27.562-296.76544 26.748 0 0-12.537856 4.05-9.198592 17.026 3.345408 12.968 32.605184 110.249 17.555456 161.32 0 0-16.7168 55.131-27.58144 57.56 0 0-50.997248-30.807-107.006976 0-56.006656 30.809-66.875392 138.632-11.6992 171.052 55.169024 32.425 150.472704 1.627 140.438528-51.067-10.03008-52.7-69.382144-55.128-89.450496-42.16 0 0-9.196544 13.785 22.566912 24.321 31.771648 10.54 27.590656 53.504-20.89472 51.081 0 0-71.892992-15.408-20.063232-108.633 0 0 76.905472-50.258 115.360768 19.454 38.449152 69.715 22.121472 214.741 100.315136 226.183 55.427072 8.108 76.905472-28.369 101.984256-40.527 25.08288-12.171 125.398016 35.659 166.355968-120.801l9.19552 1.621c0 0 13.92128 97.018 104.495104 68.911 41.796608-12.967 70.22592-48.638 3.345408-56.749-66.879488-8.107-43.779072-15.163-28.423168-20.268 0 0 71.05536 8.918 59.35616-45.396-11.710464-54.313-105.33376-121.604-162.176-98.099-56.845312 23.511-106.172416 41.352-121.217024 75.397-1.401856 3.172-4.186112 5.654-8.081408 7.55-7.529472-35.858-14.618624-129.837 95.650816-192.482l4.104192 1.703c0 0 114.951168-31.356 200.710144 74.578l8.839168-8.645-14.4896-139.432c0 0 102.545408 33.509 105.88672-38.916C911.9488 361.213 808.426496 385.262 779.578368 356.221zM747.047936 255.953c4.970496-3.521 9.427968-6.037 11.784192-4.523 3.449856 2.216 6.659072 5.26 9.626624 8.838C748.281856 271.992 745.376768 265.19 747.047936 255.953zM698.230784 258.003c0 0 23.43424-17.942 49.831936-28.662-10.274816 16.307-22.249472 38.929-22.249472 38.929 0.002048 0 0.004096 0 0.007168 0.001l-0.003072 0.003 60.43648 45.841c-2.173952 7.594-9.125888 23.762-28.120064 17.91-24.521728-7.56-18.94912-46.461-59.072512-54.569C699.071488 277.456 683.286528 268.262 698.230784 258.003zM283.311104 615.241c0 0 26.216448-39.045 51.193856-52.221-6.0928 24.894-8.805376 52.027-6.3744 81.199L283.311104 615.241zM348.194816 521.963c-6.976512-1.138-18.41664-5.86-19.187712-24.558-1.115136-27.024-25.64096-112.412 104.772608-97.282l3.248128 1.347C411.557888 424.034 372.219904 465.327 348.194816 521.963zM690.143232 400.128c-23.40864-5.405-65.764352 5.401-72.451072 12.963 0 0-1.112064-27.024 49.045504-36.751 25.4208-4.928 61.432832-8.748 94.690304-15.817l-2.18624 67.703C759.242752 428.226 713.5488 405.533 690.143232 400.128z" p-id="4195" fill="#159957"></path></svg>